<svg width="269" height="56" viewBox="0 0 269 56" fill="none" xmlns="http://www.w3.org/2000/svg">
<g clip-path="url(#clip0_21_2070)">
<path d="M15.1845 31.0146L29.7025 45.3063H0.666504L15.1845 31.0146Z" fill="#959595"/>
<path d="M0.666504 16.7229L15.1845 31.0146L29.7025 16.7229H0.666504Z" fill="#959595"/>
<path d="M15.187 31.0146L29.705 45.3062L44.223 31.0146L29.705 16.7229L15.187 31.0146Z" fill="#959595"/>
<path d="M263.404 23.4967C263.404 23.7043 263.117 23.7953 262.982 23.6367C261.92 22.4023 260.166 21.4667 257.765 21.4667C252.568 21.4667 249.614 25.662 249.614 30.7417C249.614 35.7887 252.568 39.9817 257.765 39.9817C260.198 39.9817 262.1 39.13 263.281 37.66C263.414 37.4967 263.71 37.5853 263.71 37.7953V39.3657C263.71 39.4823 263.803 39.5757 263.918 39.5757H267.236C267.352 39.5757 267.446 39.4823 267.446 39.3657V14.21C267.446 14.1543 267.424 14.1009 267.384 14.0615C267.345 14.0221 267.291 14 267.236 14H263.612C263.557 14.0006 263.504 14.023 263.465 14.0623C263.426 14.1016 263.404 14.1547 263.404 14.21V23.4967ZM263.572 30.7417C263.572 33.915 261.706 36.4023 258.614 36.4023C255.557 36.4023 253.656 33.9127 253.656 30.7417C253.656 27.503 255.557 25.0483 258.614 25.0483C261.706 25.0483 263.572 27.503 263.572 30.7417ZM248.606 21.9333C248.607 21.881 248.587 21.8305 248.552 21.792C248.516 21.7535 248.467 21.7298 248.415 21.7257C248.286 21.7158 248.157 21.7095 248.028 21.707C245.531 21.707 244.077 22.708 243.277 23.688C243.142 23.8513 242.831 23.7627 242.831 23.548V22.085C242.831 22.0297 242.81 21.9766 242.771 21.9373C242.732 21.898 242.679 21.8756 242.624 21.875H239.303C239.248 21.8756 239.195 21.898 239.156 21.9373C239.118 21.9766 239.096 22.0297 239.096 22.085V39.3657C239.096 39.4823 239.189 39.5757 239.303 39.5757H242.929C242.985 39.5751 243.038 39.5527 243.076 39.5133C243.115 39.474 243.137 39.421 243.137 39.3657V30.3683C243.137 26.957 244.836 25.4567 247.689 25.4567C247.932 25.4567 248.189 25.48 248.366 25.4963C248.396 25.4996 248.426 25.4966 248.455 25.4876C248.483 25.4786 248.51 25.4637 248.532 25.444C248.555 25.4243 248.573 25.4001 248.586 25.3729C248.599 25.3458 248.606 25.3163 248.606 25.2863V21.9333ZM231.491 31.29C231.521 31.2856 231.552 31.2878 231.581 31.2962C231.61 31.3046 231.636 31.3192 231.659 31.3389C231.682 31.3586 231.7 31.383 231.713 31.4104C231.725 31.4378 231.732 31.4675 231.732 31.4977V32.3797C231.732 34.7667 230.136 36.813 226.874 36.813C224.937 36.813 223.747 36.1643 223.747 34.4937C223.747 33.2663 224.564 32.347 227.044 31.969L231.491 31.2923V31.29ZM226.059 39.984C228.572 39.984 230.462 39.2513 231.687 37.814C231.82 37.6553 232.112 37.744 232.121 37.954C232.17 38.969 232.315 39.5733 232.343 39.5733H235.864C236.013 39.5733 236.118 39.4193 236.072 39.277C235.827 38.5023 235.67 37.247 235.67 36.232V28.0817C235.67 24.024 233.225 21.4667 228.064 21.4667C222.863 21.4667 220.732 24.192 220.312 27.2043C220.309 27.2333 220.312 27.2626 220.321 27.2904C220.33 27.3182 220.344 27.3438 220.364 27.3656C220.383 27.3874 220.407 27.4049 220.433 27.4169C220.46 27.4289 220.489 27.4352 220.518 27.4353H224.048C224.151 27.4353 224.235 27.3607 224.258 27.2603C224.587 25.7273 225.833 24.8103 227.961 24.8103C230.371 24.8103 231.732 25.9 231.732 28.049V28.14C231.732 28.1904 231.714 28.2391 231.681 28.2773C231.648 28.3154 231.602 28.3404 231.552 28.3477L226.636 29.0383C221.983 29.6847 219.878 31.6283 219.878 34.629C219.878 37.6623 221.677 39.984 226.059 39.984V39.984ZM209.18 39.984C214.817 39.984 218.35 35.721 218.35 30.744C218.35 25.7647 214.817 21.4667 209.18 21.4667C203.575 21.4667 200.045 25.7647 200.045 30.7417C200.045 35.721 203.575 39.9817 209.18 39.9817V39.984ZM204.086 30.744C204.086 27.2977 206.259 25.0483 209.18 25.0483C212.136 25.0483 214.309 27.2977 214.309 30.7417C214.309 34.153 212.136 36.4023 209.18 36.4023C206.259 36.4023 204.086 34.153 204.086 30.7417V30.744ZM185.161 23.6367C185.025 23.7953 184.741 23.7043 184.741 23.4967V14.21C184.741 14.1543 184.719 14.1009 184.679 14.0615C184.64 14.0221 184.587 14 184.531 14H180.907C180.851 14 180.798 14.0221 180.759 14.0615C180.719 14.1009 180.697 14.1543 180.697 14.21V39.3633C180.697 39.48 180.79 39.5733 180.907 39.5733H184.225C184.342 39.5733 184.435 39.48 184.435 39.3633V37.7767C184.435 37.5667 184.724 37.478 184.855 37.6413C186.061 39.123 187.965 39.984 190.378 39.984C195.607 39.984 198.563 35.7887 198.563 30.744C198.563 25.662 195.607 21.4667 190.378 21.4667C188.005 21.4667 186.229 22.4023 185.161 23.6367V23.6367ZM184.603 30.7417C184.603 27.503 186.47 25.0483 189.561 25.0483C192.618 25.0483 194.522 27.503 194.522 30.7417C194.522 33.915 192.618 36.4023 189.561 36.4023C186.472 36.4023 184.603 33.9127 184.603 30.7417V30.7417ZM177.265 36.239C177.264 36.2062 177.256 36.174 177.241 36.1447C177.226 36.1154 177.205 36.0897 177.179 36.0695C177.153 36.0492 177.123 36.0349 177.091 36.0275C177.059 36.0201 177.026 36.0198 176.994 36.0267C176.761 36.0733 176.401 36.1317 176.009 36.1317C174.616 36.1317 174.04 35.448 174.04 34.0503V25.3237C174.041 25.2684 174.063 25.2156 174.102 25.1767C174.142 25.1378 174.195 25.116 174.25 25.116H177.125C177.241 25.116 177.335 25.0227 177.335 24.906V22.0897C177.335 22.034 177.313 21.9806 177.273 21.9412C177.234 21.9018 177.18 21.8797 177.125 21.8797H174.248C174.22 21.8797 174.193 21.8742 174.167 21.8637C174.142 21.8531 174.119 21.8377 174.099 21.8182C174.08 21.7987 174.064 21.7755 174.054 21.75C174.043 21.7246 174.038 21.6972 174.038 21.6697V17.486C174.038 17.4307 174.016 17.3776 173.977 17.3383C173.938 17.299 173.885 17.2766 173.83 17.276H170.206C170.151 17.276 170.097 17.2981 170.058 17.3375C170.019 17.3769 169.996 17.4303 169.996 17.486V21.672C169.996 21.6996 169.991 21.7269 169.98 21.7524C169.97 21.7778 169.954 21.801 169.935 21.8205C169.915 21.84 169.892 21.8555 169.867 21.866C169.841 21.8766 169.814 21.882 169.786 21.882H167.523C167.468 21.882 167.415 21.9038 167.375 21.9427C167.336 21.9816 167.314 22.0344 167.313 22.0897V24.9107C167.313 25.0273 167.406 25.1207 167.523 25.1207H169.786C169.903 25.1207 169.996 25.214 169.996 25.3283V34.4633C169.996 37.8047 171.56 39.6807 175.16 39.6807C176.159 39.6807 176.826 39.5687 177.111 39.5103C177.155 39.5006 177.195 39.4757 177.223 39.44C177.251 39.4042 177.266 39.3598 177.265 39.3143V36.239V36.239ZM148.756 30.7417C148.756 35.8563 152.356 39.9817 157.553 39.9817C162.653 39.9817 165.299 36.5143 165.869 33.4017C165.874 33.3722 165.873 33.342 165.865 33.3132C165.857 33.2844 165.843 33.2576 165.823 33.2349C165.804 33.2122 165.78 33.194 165.753 33.1817C165.725 33.1694 165.696 33.1632 165.666 33.1637H161.928C161.881 33.1641 161.836 33.1798 161.798 33.2085C161.761 33.2371 161.735 33.2771 161.722 33.3223C161.2 35.1447 159.632 36.4023 157.518 36.4023C154.631 36.4023 152.797 34.0503 152.797 30.7417C152.797 27.4003 154.631 25.0483 157.518 25.0483C159.632 25.0483 161.2 26.306 161.722 28.1283C161.748 28.2217 161.832 28.287 161.928 28.287H165.666C165.696 28.2874 165.725 28.2813 165.753 28.269C165.78 28.2567 165.804 28.2385 165.823 28.2158C165.843 28.193 165.857 28.1663 165.865 28.1375C165.873 28.1086 165.874 28.0784 165.869 28.049C165.299 24.9363 162.653 21.469 157.553 21.469C152.356 21.469 148.756 25.5943 148.756 30.7417V30.7417ZM141.95 32.0717C141.95 34.9697 140.389 36.505 137.876 36.505C135.43 36.505 134.446 34.902 134.446 32.4823V22.085C134.446 22.0293 134.424 21.9759 134.384 21.9365C134.345 21.8971 134.291 21.875 134.236 21.875H130.612C130.556 21.875 130.503 21.8971 130.464 21.9365C130.424 21.9759 130.402 22.0293 130.402 22.085V33.0283C130.402 37.1537 132.612 39.9817 136.889 39.9817C139.264 39.9817 140.886 39.088 141.793 37.9797C141.931 37.8117 142.258 37.9073 142.258 38.1243V39.3657C142.258 39.4823 142.351 39.5757 142.468 39.5757H145.783C145.9 39.5757 145.993 39.4823 145.993 39.3657V22.085C145.993 22.0293 145.971 21.9759 145.932 21.9365C145.893 21.8971 145.839 21.875 145.783 21.875H142.16C142.104 21.875 142.051 21.8971 142.011 21.9365C141.972 21.9759 141.95 22.0293 141.95 22.085V32.0717ZM123.26 23.4967C123.26 23.7043 122.973 23.7953 122.837 23.6367C121.776 22.4023 120.021 21.4667 117.62 21.4667C112.424 21.4667 109.467 25.662 109.467 30.7417C109.467 35.7887 112.424 39.9817 117.62 39.9817C120.051 39.9817 121.953 39.13 123.136 37.66C123.269 37.4967 123.563 37.5853 123.563 37.7953V39.3657C123.563 39.4823 123.656 39.5757 123.773 39.5757H127.091C127.208 39.5757 127.301 39.4823 127.301 39.3657V14.21C127.301 14.1543 127.279 14.1009 127.24 14.0615C127.2 14.0221 127.147 14 127.091 14H123.467C123.412 14 123.358 14.0221 123.319 14.0615C123.28 14.1009 123.257 14.1543 123.257 14.21V23.4967H123.26ZM123.428 30.7417C123.428 33.915 121.561 36.4023 118.469 36.4023C115.413 36.4023 113.509 33.9127 113.509 30.7417C113.509 27.503 115.413 25.0483 118.469 25.0483C121.559 25.0483 123.428 27.503 123.428 30.7417ZM98.6665 39.984C104.306 39.984 107.836 35.721 107.836 30.744C107.836 25.7623 104.308 21.4667 98.6665 21.4667C93.0641 21.4667 89.5315 25.7647 89.5315 30.7417C89.5315 35.721 93.0641 39.9817 98.6665 39.9817V39.984ZM93.5728 30.744C93.5728 27.2977 95.7451 25.0483 98.6665 25.0483C101.623 25.0483 103.795 27.2977 103.795 30.7417C103.795 34.153 101.623 36.4023 98.6665 36.4023C95.7451 36.4023 93.5728 34.153 93.5728 30.7417V30.744ZM89.0671 21.9333C89.0673 21.881 89.0477 21.8305 89.0122 21.792C88.9767 21.7535 88.928 21.7298 88.8758 21.7257C88.7477 21.7158 88.6193 21.7095 88.4908 21.707C85.9941 21.707 84.5381 22.708 83.7378 23.688C83.6025 23.8513 83.2945 23.7627 83.2945 23.548V22.085C83.2945 22.0293 83.2723 21.9759 83.233 21.9365C83.1936 21.8971 83.1402 21.875 83.0845 21.875H79.7665C79.7108 21.875 79.6574 21.8971 79.618 21.9365C79.5786 21.9759 79.5565 22.0293 79.5565 22.085V39.3657C79.5565 39.4823 79.6498 39.5757 79.7665 39.5757H83.3901C83.5068 39.5757 83.6001 39.4823 83.6001 39.3657V30.3683C83.6001 26.957 85.2965 25.4567 88.1501 25.4567C88.3951 25.4567 88.6495 25.48 88.8268 25.4963C88.8566 25.4996 88.8868 25.4966 88.9154 25.4876C88.944 25.4786 88.9704 25.4637 88.993 25.444C89.0156 25.4243 89.0338 25.4001 89.0466 25.3729C89.0593 25.3458 89.0663 25.3163 89.0671 25.2863V21.9333ZM63.2371 37.968C63.2371 37.758 63.5265 37.667 63.6641 37.828C64.7305 39.0763 66.5061 39.984 68.8768 39.984C74.1058 39.984 77.0621 35.7887 77.0621 30.744C77.0621 25.662 74.1058 21.4667 68.8768 21.4667C66.4618 21.4667 64.5578 22.3557 63.3515 23.8233C63.2208 23.9843 62.9315 23.8933 62.9315 23.6833V22.085C62.9315 22.0293 62.9093 21.9759 62.87 21.9365C62.8306 21.8971 62.7772 21.875 62.7215 21.875H59.4058C59.3501 21.875 59.2967 21.8971 59.2573 21.9365C59.2179 21.9759 59.1958 22.0293 59.1958 22.085V46.4567C59.1958 46.5733 59.2891 46.6667 59.4058 46.6667H63.0295C63.1461 46.6667 63.2395 46.5733 63.2395 46.4567V37.968H63.2371ZM63.1018 30.7417C63.1018 27.468 64.9685 24.9783 68.0601 24.9783C71.1168 24.9783 73.0208 27.468 73.0208 30.7417C73.0208 33.915 71.1168 36.4023 68.0601 36.4023C64.9708 36.4023 63.1018 33.9127 63.1018 30.7417Z" fill="#959595"/>
</g>
<defs>
<clipPath id="clip0_21_2070">
<rect width="268.333" height="56" fill="white" transform="translate(0.666504)"/>
</clipPath>
</defs>
</svg>
