<svg width="151" height="56" viewBox="0 0 151 56" fill="none" xmlns="http://www.w3.org/2000/svg">
<g clip-path="url(#clip0_21_2064)">
<path fill-rule="evenodd" clip-rule="evenodd" d="M117.057 36.8871C120.906 36.8871 124.036 33.8187 124.036 30.0474C124.036 26.2758 120.906 23.2076 117.057 23.2076C113.209 23.2076 110.078 26.2758 110.078 30.0474C110.078 33.8187 113.209 36.8871 117.057 36.8871ZM124.036 13.0493H124.226H127.343V40.1505H124.036V37.4446C122.128 39.1779 119.668 40.1274 117.057 40.1274C111.386 40.1274 106.772 35.6054 106.772 30.0474C106.772 24.4889 111.386 19.9672 117.057 19.9672C119.668 19.9672 122.128 20.9166 124.036 22.65V13.0493ZM48.4858 36.7677C52.3341 36.7677 55.465 33.6994 55.465 29.9279C55.465 26.1566 52.3341 23.0883 48.4858 23.0883C44.6373 23.0883 41.5064 26.1566 41.5064 29.9279C41.5064 33.6994 44.6373 36.7677 48.4858 36.7677ZM41.5064 22.5309C43.4147 20.7975 45.8758 19.848 48.4858 19.848C54.1572 19.848 58.7714 24.3699 58.7714 29.9279C58.7714 35.4861 54.1572 40.008 48.4858 40.008C45.8758 40.008 43.4147 39.0587 41.5064 37.325V46.9259H38.2V19.8246H41.5064V22.5309ZM65.0802 28.3541C65.8243 25.2911 68.5971 23.0918 71.7599 23.0918C74.8813 23.0918 77.4961 25.2442 78.1929 28.3541H65.0802ZM71.7599 19.8246C66.1733 19.8246 61.6286 24.3839 61.6286 29.9876C61.6286 35.5915 66.1733 40.1505 71.7599 40.1505C74.8882 40.1505 77.7595 38.9757 79.6386 36.9272L80.6148 35.8623L80.7406 35.725L80.6037 35.5982L78.4812 33.6398L78.3443 33.5132L78.2178 33.6507L77.2416 34.7156C75.9965 36.0731 73.9473 36.8836 71.7599 36.8836C68.5971 36.8836 65.8245 34.6843 65.0802 31.6211H81.6283V29.9876C81.6283 24.2887 77.2935 19.8246 71.7599 19.8246ZM146.893 29.9877C146.893 33.7901 143.763 36.8835 139.914 36.8835C136.066 36.8835 132.935 33.7901 132.935 29.9877C132.935 26.1851 136.066 23.0916 139.914 23.0916C143.763 23.0916 146.893 26.1851 146.893 29.9877ZM139.914 19.8246C134.243 19.8246 129.629 24.3837 129.629 29.9877C129.629 35.5915 134.243 40.1505 139.914 40.1505C145.586 40.1505 150.2 35.5915 150.2 29.9877C150.2 24.3837 145.586 19.8246 139.914 19.8246ZM93.9137 19.8246C91.6163 19.8246 89.4275 20.6995 87.7046 22.2975V19.8246H84.4857V40.1505H87.7046V29.7779C87.7046 26.0772 90.4901 23.0663 93.9137 23.0663C97.338 23.0663 100.124 26.0772 100.124 29.7779V40.1505H103.342V29.7779C103.342 24.2897 99.1127 19.8246 93.9137 19.8246Z" fill="#959595"/>
<path fill-rule="evenodd" clip-rule="evenodd" d="M0.866699 32.4073H16.4222V47.6173L31.9778 32.4073V17.1975H16.4222L0.866699 32.4073Z" fill="#959595"/>
</g>
<defs>
<clipPath id="clip0_21_2064">
<rect width="149.333" height="56" fill="white" transform="translate(0.866699)"/>
</clipPath>
</defs>
</svg>
