<svg width="208" height="56" viewBox="0 0 208 56" fill="none" xmlns="http://www.w3.org/2000/svg">
<g clip-path="url(#clip0_21_2062)">
<path d="M7.52247 25.7058C7.44711 25.6072 7.34758 25.5296 7.23351 25.4807C7.11943 25.4318 6.99467 25.4132 6.87129 25.4266C6.7479 25.44 6.63005 25.485 6.52914 25.5573C6.42824 25.6295 6.34768 25.7266 6.29525 25.8391L0.0767441 38.2722C0.0200944 38.3855 -0.00665263 38.5115 -0.000957414 38.638C0.0047378 38.7646 0.0426862 38.8876 0.109285 38.9953C0.175883 39.1031 0.268922 39.192 0.379566 39.2537C0.49021 39.3154 0.614788 39.3478 0.741472 39.3478H9.40042C9.53911 39.3511 9.67574 39.314 9.79374 39.241C9.91174 39.1681 10.006 39.0624 10.0652 38.937C11.933 35.0773 10.801 29.2086 7.52247 25.7058Z" fill="url(#paint0_linear_21_2062)"/>
<path d="M12.0832 14.3971C10.5338 16.7813 9.63078 19.5273 9.46293 22.3658C9.29508 25.2043 9.86811 28.0376 11.1258 30.5877L15.3004 38.9369C15.3621 39.0603 15.457 39.1642 15.5744 39.2367C15.6918 39.3093 15.8271 39.3477 15.9651 39.3478H24.6225C24.7492 39.3477 24.8737 39.3154 24.9844 39.2537C25.095 39.192 25.1881 39.103 25.2547 38.9952C25.3213 38.8875 25.3592 38.7645 25.3649 38.6379C25.3706 38.5114 25.3439 38.3855 25.2872 38.2721C25.2872 38.2721 13.6401 14.9752 13.3474 14.3925C13.2895 14.2739 13.1994 14.174 13.0873 14.1043C12.9753 14.0345 12.8458 13.9978 12.7138 13.9983C12.5819 13.9988 12.4527 14.0365 12.3412 14.107C12.2296 14.1776 12.1402 14.2781 12.0832 14.3971V14.3971Z" fill="#959595"/>
<path d="M113.63 24.3661C113.63 27.4448 115.059 29.8891 120.645 30.9683C123.978 31.668 124.676 32.206 124.676 33.317C124.676 34.3961 123.976 35.0946 121.629 35.0946C118.792 35.0436 116.011 34.2912 113.535 32.9045V37.9191C115.218 38.7444 117.439 39.6649 121.566 39.6649C127.406 39.6649 129.723 37.0604 129.723 33.1898L113.63 24.3661ZM129.723 33.1898C129.723 29.5397 127.787 27.8254 122.327 26.6514C119.312 25.9847 118.582 25.3185 118.582 24.3661C118.582 23.161 119.661 22.6522 121.661 22.6522C124.073 22.6522 126.454 23.3822 128.707 24.3979V19.6049C126.546 18.6214 124.193 18.1334 121.819 18.1767C116.423 18.1767 113.63 20.5254 113.63 24.3661" fill="#959595"/>
<path d="M188.662 18.4941V39.3479H193.105V23.4458L194.978 27.667L201.263 39.3479H206.849V18.4941H202.406V31.9523L200.723 28.0479L195.676 18.4941H188.662Z" fill="#959595"/>
<path d="M160.399 18.4941H155.543V39.3479H160.399V18.4941Z" fill="#959595"/>
<path d="M149.939 33.1896C149.939 29.5394 148.003 27.8251 142.544 26.6512C139.528 25.9845 138.798 25.3182 138.798 24.3658C138.798 23.1608 139.877 22.6519 141.877 22.6519C144.29 22.6519 146.67 23.382 148.924 24.3977V19.6047C146.763 18.6212 144.409 18.1332 142.036 18.1765C136.64 18.1765 133.847 20.5252 133.847 24.3658C133.847 27.4446 135.275 29.8889 140.861 30.968C144.194 31.6677 144.892 32.2057 144.892 33.3167C144.892 34.3958 144.193 35.0944 141.845 35.0944C139.008 35.0434 136.227 34.291 133.751 32.9043V37.9189C135.434 38.7442 137.655 39.6647 141.782 39.6647C147.622 39.6647 149.939 37.0602 149.939 33.1896" fill="#959595"/>
<path d="M75.9033 18.4941V39.3479H85.8851L87.4568 34.8406H80.7912V18.4941H75.9033Z" fill="#959595"/>
<path d="M56.1833 18.4941V23.0011H61.5793V39.3479H66.4672V23.0011H72.2441V18.4941H56.1833Z" fill="#959595"/>
<path d="M49.0953 18.4941H42.6894L35.4175 39.3479H40.9709L42.0018 35.8358C44.5408 36.5813 47.2405 36.5813 49.7795 35.8358L50.8104 39.3479H56.365L49.0953 18.4941ZM45.8922 32.0752C44.9876 32.0751 44.0876 31.9457 43.2197 31.6907L45.8922 22.5902L48.5647 31.6938C47.6966 31.9477 46.7967 32.0761 45.8922 32.0752V32.0752Z" fill="#959595"/>
<path d="M103.094 18.4941H96.689L89.417 39.3479H94.9716L96.0025 35.8358C98.5414 36.5813 101.241 36.5813 103.78 35.8358L104.811 39.3479H110.366L103.094 18.4941ZM99.8917 32.0752C98.9871 32.0751 98.0871 31.9457 97.2192 31.6907L99.8917 22.5902L102.564 31.6938C101.696 31.9477 100.796 32.0761 99.8917 32.0752Z" fill="#959595"/>
<path d="M177.899 18.4941H171.493L164.221 39.3479H169.776L170.807 35.8358C173.346 36.5813 176.046 36.5813 178.585 35.8358L179.616 39.3479H185.17L177.899 18.4941ZM174.694 32.0752C173.79 32.0751 172.89 31.9457 172.022 31.6907L174.694 22.5902L177.367 31.6938C176.499 31.9477 175.599 32.0761 174.694 32.0752V32.0752Z" fill="#959595"/>
</g>
<defs>
<linearGradient id="paint0_linear_21_2062" x1="10.9305" y1="27.6245" x2="4.36793" y2="38.9914" gradientUnits="userSpaceOnUse">
<stop stop-color="#959595"/>
<stop offset="0.923" stop-color="#636363"/>
</linearGradient>
<clipPath id="clip0_21_2062">
<rect width="207.667" height="56" fill="white"/>
</clipPath>
</defs>
</svg>
