<svg width="193" height="56" viewBox="0 0 193 56" fill="none" xmlns="http://www.w3.org/2000/svg">
<g clip-path="url(#clip0_21_2068)">
<path d="M56.6591 18.7498H64.7302C69.201 18.7498 71.5221 20.583 71.5221 24.0251V24.1965C71.5858 25.2052 71.2854 26.2032 70.6755 27.0092C70.0656 27.8151 69.1867 28.3754 68.1987 28.5881C69.3819 28.6923 70.4763 29.259 71.2442 30.1652C72.0121 31.0714 72.3916 32.2439 72.3002 33.4282V33.5469C72.3002 37.3055 69.834 39.2837 65.0995 39.2837H56.6591V18.7498ZM63.9785 27.177C66.2205 27.177 67.1041 26.3725 67.1041 24.5394V24.4207C67.1041 22.7063 66.1281 21.9282 63.9521 21.9282H61.1958V27.2034L63.9785 27.177ZM64.3741 36.0526C66.6688 36.0526 67.7107 35.0107 67.7107 33.1512V33.0325C67.7107 31.1334 66.6689 30.1707 64.1499 30.1707H61.1958V36.0658L64.3741 36.0526Z" fill="#959595"/>
<path d="M73.5137 35.1031C73.5137 31.5951 76.7184 30.2763 81.321 30.2763H83.0091V29.6828C83.0091 27.9024 82.4684 26.9265 80.5693 26.9265C80.2619 26.89 79.9503 26.9168 79.6536 27.0053C79.357 27.0937 79.0815 27.242 78.8443 27.4409C78.6071 27.6398 78.4132 27.8851 78.2743 28.1618C78.1355 28.4385 78.0548 28.7407 78.0372 29.0498H74.0808C74.3445 25.489 77.1536 23.9064 80.8331 23.9064C84.5125 23.9064 87.1106 25.3967 87.1106 29.4718V39.2573H83.0618V37.4506C82.5537 38.1665 81.8687 38.7384 81.0735 39.1106C80.2784 39.4827 79.4004 39.6423 78.5251 39.5739C75.8084 39.5739 73.5137 38.255 73.5137 35.1031ZM83.0091 34.0085V32.6897H81.4001C78.9867 32.6897 77.5888 33.2172 77.5888 34.813C77.5888 35.9076 78.2482 36.6329 79.7648 36.6329C81.598 36.6857 83.0091 35.6702 83.0091 34.0085Z" fill="#959595"/>
<path d="M88.8643 34.5492H92.7416C92.9131 35.868 93.5725 36.6857 95.3792 36.6857C96.9882 36.6857 97.7399 36.079 97.7399 35.0371C97.7399 33.9953 96.8431 33.5733 94.6935 33.2699C90.737 32.6633 89.1545 31.5159 89.1545 28.5882C89.1545 25.6604 92.0295 23.9064 95.0891 23.9064C98.4257 23.9064 100.918 25.1197 101.288 28.5618H97.4761C97.2519 27.3221 96.553 26.755 95.1287 26.755C93.7044 26.755 93.0054 27.3881 93.0054 28.298C93.0054 29.208 93.7175 29.6168 95.8936 29.9334C99.6522 30.4741 101.723 31.4236 101.723 34.6415C101.723 37.8594 99.3752 39.5739 95.4056 39.5739C91.436 39.5739 89.0094 37.7935 88.8643 34.5492Z" fill="#959595"/>
<path d="M102.791 31.9379V31.7137C102.741 30.6831 102.906 29.6532 103.274 28.6895C103.643 27.7258 104.208 26.8492 104.933 26.1152C105.659 25.3813 106.529 24.8059 107.488 24.4257C108.447 24.0455 109.475 23.8686 110.506 23.9064C114.383 23.9064 117.825 26.1747 117.825 31.5423V32.6896H107.051C107.156 35.1822 108.515 36.6461 110.77 36.6461C112.695 36.6461 113.645 35.8152 113.909 34.5491H117.865C117.377 37.7934 114.792 39.6002 110.691 39.6002C106.088 39.5738 102.791 36.7384 102.791 31.9379ZM113.777 30.1311C113.645 27.8628 112.484 26.8341 110.506 26.8341C109.615 26.8299 108.758 27.1711 108.114 27.7859C107.469 28.4007 107.088 29.2413 107.051 30.1311H113.777Z" fill="#959595"/>
<path d="M118.92 31.9378V31.7136C118.87 30.6806 119.035 29.6485 119.405 28.6829C119.776 27.7174 120.343 26.8394 121.071 26.1051C121.8 25.3707 122.673 24.7959 123.635 24.4174C124.597 24.0388 125.628 23.8648 126.661 23.9062C130.143 23.9062 133.348 25.4229 133.73 29.7354H129.774C129.748 29.3652 129.647 29.0041 129.478 28.6736C129.31 28.343 129.077 28.0497 128.792 27.811C128.508 27.5723 128.179 27.3932 127.824 27.2843C127.47 27.1754 127.097 27.1389 126.727 27.1769C124.578 27.1769 123.14 28.7858 123.14 31.6608V31.885C123.14 34.9051 124.459 36.4481 126.82 36.4481C127.221 36.4712 127.624 36.4142 128.003 36.2803C128.382 36.1465 128.731 35.9385 129.03 35.6685C129.328 35.3985 129.569 35.0718 129.74 34.7076C129.911 34.3433 130.008 33.9487 130.024 33.5467H133.783C133.559 37.1075 130.974 39.5737 126.609 39.5737C122.243 39.5737 118.92 36.8438 118.92 31.9378Z" fill="#959595"/>
<path d="M134.746 35.1031C134.746 31.595 137.951 30.2762 142.54 30.2762H144.241V29.6828C144.241 27.9024 143.687 26.9264 141.802 26.9264C141.492 26.886 141.178 26.9099 140.878 26.9966C140.578 27.0833 140.299 27.2309 140.059 27.4302C139.819 27.6295 139.623 27.8761 139.482 28.1548C139.342 28.4335 139.26 28.7381 139.243 29.0497H135.287C135.55 25.4889 138.359 23.9064 142.026 23.9064C145.692 23.9064 148.317 25.3966 148.317 29.4717V39.2573H144.268V37.4505C143.76 38.1665 143.075 38.7384 142.279 39.1106C141.484 39.4827 140.606 39.6423 139.731 39.5738C137.093 39.5738 134.746 38.255 134.746 35.1031ZM144.241 34.0084V32.6896H142.659C140.245 32.6896 138.834 33.2172 138.834 34.8129C138.834 35.9075 139.507 36.6329 141.023 36.6329C142.883 36.6856 144.294 35.6701 144.294 34.0084H144.241Z" fill="#959595"/>
<path d="M151.244 24.1964H155.398V26.4912C155.851 25.6759 156.518 24.9995 157.326 24.5347C158.135 24.07 159.055 23.8345 159.988 23.8536C160.878 23.7824 161.767 24.0007 162.523 24.476C163.278 24.9513 163.86 25.6582 164.181 26.4912C164.735 25.6639 165.488 24.9889 166.371 24.5281C167.253 24.0673 168.237 23.8353 169.232 23.8536C172.015 23.8536 174.165 25.6076 174.165 29.5904V39.2045H170.037V30.1047C170.037 28.1792 169.18 27.322 167.676 27.322C167.276 27.3046 166.877 27.3737 166.507 27.5246C166.136 27.6755 165.802 27.9046 165.528 28.1963C165.254 28.488 165.046 28.8354 164.918 29.2148C164.79 29.5942 164.746 29.9967 164.788 30.3948V39.2572H160.647V30.1047C160.647 28.1792 159.763 27.322 158.3 27.322C157.899 27.3027 157.498 27.3703 157.126 27.5203C156.753 27.6703 156.418 27.8991 156.142 28.1911C155.866 28.483 155.657 28.8311 155.529 29.2115C155.4 29.5919 155.356 29.9956 155.398 30.3948V39.2572H151.244V24.1964Z" fill="#959595"/>
<path d="M177.014 24.1965H181.181V26.5571C181.678 25.7314 182.38 25.0484 183.219 24.5746C184.058 24.1009 185.005 23.8524 185.968 23.8536C189.648 23.8536 192.562 26.5835 192.562 31.5422V31.7796C192.562 36.7383 189.753 39.521 185.968 39.521C185.006 39.5605 184.051 39.3356 183.207 38.8706C182.363 38.4056 181.662 37.7183 181.181 36.8834V44.3742H177.014V24.1965ZM188.29 31.5818C188.29 28.5353 186.799 27.0451 184.702 27.0451C182.605 27.0451 181.036 28.5617 181.036 31.5818V31.806C181.036 34.8129 182.474 36.2767 184.742 36.2767C187.01 36.2767 188.29 34.7469 188.29 31.8587V31.5818Z" fill="#959595"/>
<path fill-rule="evenodd" clip-rule="evenodd" d="M25.8255 11.5821C14.1231 11.5821 8.02015 21.4942 4.60312 31.1824C4.19005 32.3535 2.9058 32.9681 1.73466 32.555C0.897008 32.2596 0.344097 31.5184 0.248272 30.6918C0.210122 30.3627 0.244421 30.02 0.362043 29.6866C3.82919 19.8563 10.9143 7.08496 25.8255 7.08496C33.6195 7.08496 39.1982 12.2412 42.8062 18.4358C46.4237 24.6466 48.3524 32.3371 48.7871 38.5464C48.8183 38.9927 48.7157 39.4382 48.4924 39.8258C46.4028 43.4529 42.9267 45.8167 38.9643 47.2644C35.0116 48.7086 30.433 49.2985 25.8436 49.3C21.9444 49.3609 18.0778 48.5805 14.5072 47.0121C10.931 45.4411 7.73617 43.1166 5.14096 40.1974C4.58886 39.5764 4.42427 38.7015 4.71293 37.9223L4.71462 37.9177L4.71785 37.9091L4.72884 37.8797L4.76865 37.7747C4.80298 37.6849 4.85275 37.556 4.91687 37.3937C5.04501 37.0694 5.23101 36.6102 5.46617 36.0606C5.93442 34.9664 6.60714 33.4917 7.41523 32.0028C8.2127 30.5335 9.19332 28.9538 10.2961 27.7093C11.3014 26.5748 12.8641 25.1926 14.8641 25.1791L14.8794 25.179C16.2927 25.179 17.4536 25.8261 18.2893 26.4482C19.1317 27.0752 19.8966 27.8721 20.5097 28.5208C20.58 28.5952 20.6483 28.6677 20.7149 28.7382C21.2858 29.3436 21.7224 29.8065 22.1372 30.1531C22.1838 30.1921 22.2266 30.2265 22.2657 30.2567C22.4006 30.1189 22.5616 29.9382 22.7468 29.7085C23.4059 28.8915 24.1461 27.7406 24.8624 26.5084C25.5693 25.2925 26.2128 24.0677 26.6818 23.1413C26.9155 22.6796 27.1042 22.2957 27.2336 22.0286C27.2984 21.8951 27.3482 21.7911 27.3814 21.7213L27.4186 21.643L27.4274 21.6244L27.4292 21.6204C27.9564 20.4961 29.2954 20.0113 30.4198 20.5384C31.5442 21.0655 32.0285 22.4043 31.5014 23.5287L31.4965 23.5391L31.4849 23.5638L31.4416 23.655C31.4042 23.7336 31.3498 23.8471 31.2802 23.9906C31.1412 24.2774 30.9411 24.6847 30.694 25.1726C30.2016 26.1453 29.5155 27.4525 28.7503 28.7687C27.9945 30.0687 27.12 31.4499 26.2472 32.532C25.8143 33.0686 25.3236 33.6053 24.793 34.0274C24.324 34.4004 23.4967 34.9514 22.4362 34.9514C21.0338 34.9514 19.9288 34.1684 19.2535 33.604C18.617 33.0721 17.9811 32.3961 17.447 31.8282C17.3765 31.7533 17.3078 31.6802 17.2411 31.6096C16.6079 30.9395 16.0903 30.4176 15.6039 30.0555C15.1777 29.7382 14.96 29.686 14.8975 29.6777C14.8975 29.6777 14.8931 29.6794 14.8891 29.6808C14.8204 29.705 14.4073 29.8506 13.662 30.6918C12.8891 31.564 12.0985 32.8017 11.3677 34.148C10.6477 35.4747 10.0354 36.814 9.60065 37.8299C9.54464 37.9608 9.49173 38.0859 9.44208 38.2046C11.4211 40.1765 13.7509 41.7679 16.3159 42.8947C19.2994 44.2052 22.5307 44.8562 25.7889 44.8032L25.8255 44.8029C30.0792 44.8029 34.1056 44.2517 37.421 43.0404C40.4711 41.9259 42.7978 40.3018 44.2441 38.1455C43.754 32.6197 41.9938 25.9763 38.9202 20.6992C35.7033 15.1762 31.3383 11.5821 25.8255 11.5821ZM21.8961 30.5763C21.8961 30.5763 21.9059 30.5688 21.9247 30.5591C21.9054 30.5723 21.8961 30.5763 21.8961 30.5763Z" fill="#959595"/>
</g>
<defs>
<clipPath id="clip0_21_2068">
<rect width="192.5" height="56" fill="white" transform="translate(0.233398)"/>
</clipPath>
</defs>
</svg>
