<svg width="149" height="56" viewBox="0 0 149 56" fill="none" xmlns="http://www.w3.org/2000/svg">
<g clip-path="url(#clip0_21_2065)">
<path fill-rule="evenodd" clip-rule="evenodd" d="M143.583 37.3103C143.672 38.3247 144.483 39.616 145.89 39.616H146.712C147.031 39.616 147.292 39.3547 147.292 39.0356V20.9456H147.288C147.272 20.6409 147.02 20.3968 146.712 20.3968H144.163C143.855 20.3968 143.603 20.6409 143.587 20.9456H143.583V22.4155C142.021 20.4906 139.559 19.6917 137.091 19.6917C131.478 19.6917 126.929 24.2446 126.929 29.8611C126.929 35.4781 131.478 40.031 137.091 40.031C139.559 40.031 142.25 39.0729 143.583 37.308V37.3103ZM137.1 36.4719C133.531 36.4719 130.638 33.5124 130.638 29.8611C130.638 26.2105 133.531 23.251 137.1 23.251C140.67 23.251 143.563 26.2105 143.563 29.8611C143.563 33.5124 140.67 36.4719 137.1 36.4719Z" fill="#959595"/>
<path fill-rule="evenodd" clip-rule="evenodd" d="M123.706 28.5716C123.706 23.295 120.38 19.7353 115.076 19.7353C112.544 19.7353 110.468 21.2006 109.735 22.4593C109.576 21.4751 109.054 20.4405 107.435 20.4405H106.61C106.291 20.4405 106.03 20.702 106.03 21.0212V37.3555C106.03 37.3561 106.03 37.3573 106.03 37.3581V39.1127H106.033C106.05 39.417 106.302 39.6613 106.61 39.6613H109.159C109.198 39.6613 109.236 39.6567 109.273 39.6495C109.29 39.6462 109.306 39.6396 109.322 39.6349C109.341 39.6291 109.361 39.6246 109.379 39.6172C109.401 39.6077 109.422 39.5951 109.443 39.5833C109.453 39.577 109.464 39.5726 109.474 39.566C109.5 39.5495 109.523 39.5298 109.546 39.5096C109.549 39.5059 109.554 39.5034 109.557 39.5C109.583 39.4754 109.606 39.4484 109.626 39.4203C109.69 39.3326 109.729 39.2266 109.735 39.1127H109.739V28.4264C109.739 25.5925 112.035 23.295 114.867 23.295C117.698 23.295 119.994 25.5925 119.994 28.4264L119.997 37.3587L119.997 37.3555C119.997 37.3635 119.998 37.3716 119.998 37.3801V39.1127H120.002C120.019 39.417 120.27 39.6613 120.579 39.6613H123.127C123.167 39.6613 123.205 39.6567 123.242 39.6495C123.257 39.6467 123.271 39.6406 123.285 39.6365C123.306 39.6304 123.328 39.6252 123.348 39.6172C123.369 39.6085 123.388 39.5965 123.407 39.5853C123.419 39.5786 123.432 39.5737 123.444 39.566C123.467 39.5505 123.489 39.5318 123.51 39.5133C123.515 39.5083 123.521 39.5046 123.526 39.4996C123.551 39.4762 123.572 39.451 123.592 39.4247C123.593 39.4227 123.595 39.4211 123.596 39.4191C123.659 39.3322 123.697 39.2274 123.704 39.1142C123.704 39.1134 123.704 39.1127 123.704 39.1127H123.708L123.706 28.5716Z" fill="#959595"/>
<path fill-rule="evenodd" clip-rule="evenodd" d="M97.1624 37.3102C97.2515 38.3247 98.063 39.616 99.4689 39.616H100.291C100.61 39.616 100.871 39.3547 100.871 39.0356V20.9456H100.868C100.851 20.6409 100.599 20.3968 100.291 20.3968H97.7426C97.4344 20.3968 97.1826 20.6409 97.1654 20.9456H97.1624V22.4155C95.6007 20.4906 93.1386 19.6917 90.6697 19.6917C85.0577 19.6917 80.5085 24.2445 80.5085 29.8612C80.5085 35.478 85.0577 40.0311 90.6697 40.0311C93.1386 40.0311 95.8294 39.073 97.1622 37.308L97.1624 37.3102ZM90.6796 36.4718C87.1107 36.4718 84.2171 33.5125 84.2171 29.8612C84.2171 26.2105 87.1107 23.251 90.6796 23.251C94.249 23.251 97.142 26.2105 97.142 29.8612C97.142 33.5125 94.249 36.4718 90.6796 36.4718Z" fill="#959595"/>
<path fill-rule="evenodd" clip-rule="evenodd" d="M65.4362 34.7194C67.1376 35.8991 68.9949 36.4721 70.7796 36.4721C72.4799 36.4721 74.2377 35.5899 74.2377 34.0544C74.2377 32.0045 70.4075 31.6855 68.001 30.867C65.5939 30.0485 63.5208 28.3564 63.5208 25.6162C63.5208 21.4232 67.254 19.6914 70.7384 19.6914C72.946 19.6914 75.2238 20.42 76.7006 21.4636C77.2092 21.8493 76.8995 22.2921 76.8995 22.2921L75.4898 24.307C75.3313 24.5339 75.0543 24.73 74.6567 24.4843C74.2589 24.2389 72.8641 23.2508 70.7384 23.2508C68.6124 23.2508 67.3319 24.2333 67.3319 25.4511C67.3319 26.9115 68.9962 27.3708 70.9456 27.8685C74.3429 28.7849 78.0488 29.8865 78.0488 34.0544C78.0488 37.7488 74.5958 40.0318 70.7796 40.0318C67.8878 40.0318 65.4256 39.2068 63.3606 37.6903C62.9303 37.2594 63.2308 36.8593 63.2308 36.8593L64.6336 34.8546C64.919 34.4798 65.2788 34.6106 65.4362 34.7194Z" fill="#959595"/>
<path fill-rule="evenodd" clip-rule="evenodd" d="M55.6377 37.3102C55.7268 38.3247 56.5383 39.616 57.944 39.616H58.7666C59.0854 39.616 59.3468 39.3547 59.3468 39.0356V20.9456H59.3432C59.3265 20.6409 59.0747 20.3968 58.7666 20.3968H56.2178C55.9096 20.3968 55.6578 20.6409 55.6407 20.9456H55.6377V22.4155C54.0761 20.4906 51.614 19.6917 49.145 19.6917C43.5331 19.6917 38.9836 24.2445 38.9836 29.8612C38.9836 35.478 43.5331 40.0311 49.145 40.0311C51.614 40.0311 54.3046 39.073 55.6373 37.308L55.6377 37.3102ZM49.155 36.4718C45.5858 36.4718 42.6923 33.5125 42.6923 29.8612C42.6923 26.2105 45.5858 23.251 49.155 23.251C52.7241 23.251 55.6173 26.2105 55.6173 29.8612C55.6173 33.5125 52.7241 36.4718 49.155 36.4718Z" fill="#959595"/>
<path fill-rule="evenodd" clip-rule="evenodd" d="M24.7378 30.5528C20.9612 30.5528 17.8995 33.6144 17.8995 37.3913C17.8995 41.168 20.9612 44.2296 24.7378 44.2296C28.5145 44.2296 31.576 41.168 31.576 37.3913C31.576 33.6144 28.5145 30.5528 24.7378 30.5528ZM6.97153 30.5535C3.19491 30.5535 0.133301 33.6144 0.133301 37.3913C0.133301 41.168 3.19491 44.2296 6.97153 44.2296C10.7483 44.2296 13.8101 41.168 13.8101 37.3913C13.8101 33.6144 10.7483 30.5535 6.97153 30.5535ZM22.6928 22.0048C22.6928 25.7818 19.6314 28.8437 15.8547 28.8437C12.0779 28.8437 9.01646 25.7818 9.01646 22.0048C9.01646 18.2287 12.0779 15.1667 15.8547 15.1667C19.6314 15.1667 22.6928 18.2287 22.6928 22.0048Z" fill="#959595"/>
</g>
<defs>
<clipPath id="clip0_21_2065">
<rect width="148.167" height="56" fill="white" transform="translate(0.133301)"/>
</clipPath>
</defs>
</svg>
