<svg width="220" height="56" viewBox="0 0 220 56" fill="none" xmlns="http://www.w3.org/2000/svg">
<g clip-path="url(#clip0_21_2063)">
<path d="M64.3018 24.7352V35.9501H67.098C67.8116 35.9395 68.5159 35.7859 69.1691 35.4984C69.8223 35.2108 70.4112 34.7952 70.9009 34.2761C71.9062 33.2118 72.4562 31.7972 72.4338 30.3334C72.4551 29.6063 72.3326 28.8822 72.0732 28.2027C71.8138 27.5231 71.4227 26.9015 70.9223 26.3736C70.4305 25.8538 69.8375 25.4401 69.1798 25.1581C68.5221 24.8761 67.8136 24.7317 67.098 24.7338H64.3032L64.3018 24.7352ZM67.098 21.2189C72.3098 21.2189 76.2524 25.2571 76.2524 30.3334C76.2524 35.4097 72.3098 39.4707 67.098 39.4707H60.9309C60.8721 39.47 60.814 39.4577 60.76 39.4345C60.7059 39.4113 60.657 39.3777 60.6159 39.3356C60.5749 39.2935 60.5425 39.2437 60.5207 39.1891C60.4989 39.1345 60.4881 39.0761 60.4888 39.0173V21.6909C60.4888 21.4399 60.687 21.236 60.9309 21.236L67.098 21.2189V21.2189ZM89.6861 36.3408C92.0531 36.348 94.1906 34.8921 95.1018 32.652C95.5481 31.5575 95.6674 30.357 95.4452 29.196C95.223 28.0351 94.6688 26.9635 93.8498 26.1112C93.0452 25.2729 92.0051 24.6984 90.8671 24.4637C89.7291 24.229 88.5466 24.345 87.4759 24.7965C85.2885 25.7205 83.8598 27.9065 83.8555 30.3334C83.8555 33.6415 86.4621 36.3251 89.6875 36.3408H89.6861ZM89.6875 20.8054C95.1731 20.8054 99.3667 25.1288 99.3667 30.3334C99.3667 35.538 95.1731 39.8614 89.6861 39.8614C84.2006 39.8614 80.0426 35.5594 80.0426 30.3334C80.0426 25.1074 84.2362 20.8054 89.6861 20.8054H89.6875ZM112.692 36.3408C115.919 36.3323 118.53 33.6458 118.527 30.3377C118.523 27.0267 115.906 24.3459 112.681 24.3445C109.452 24.3445 106.834 27.0238 106.83 30.3334C106.83 31.9276 107.447 33.4562 108.547 34.5827C109.085 35.1378 109.729 35.5794 110.441 35.8814C111.152 36.1834 111.917 36.3396 112.691 36.3408H112.692ZM112.691 20.8054C118.159 20.8054 122.353 25.1074 122.353 30.3334C122.353 35.5594 118.142 39.8614 112.691 39.8614C107.241 39.8614 103.011 35.5594 103.011 30.3334C103.011 25.1074 107.205 20.8054 112.691 20.8054ZM135.143 24.7352H131.201V29.562H135.143C135.455 29.5758 135.766 29.5256 136.057 29.4145C136.348 29.3034 136.614 29.1337 136.837 28.916C137.293 28.474 137.553 27.8608 137.559 27.2163C137.57 26.8893 137.516 26.5634 137.398 26.2581C137.28 25.9528 137.102 25.6744 136.874 25.4396C136.651 25.2086 136.381 25.0269 136.083 24.9064C135.785 24.7858 135.465 24.7289 135.143 24.7395V24.7352ZM127.386 21.6909C127.386 21.4399 127.586 21.236 127.83 21.236H135.253C138.792 21.236 141.353 23.8953 141.353 27.2349C141.38 29.4935 140.147 31.5683 138.178 32.5792L141.601 38.7863C141.649 38.8576 141.675 38.9407 141.678 39.0263C141.681 39.1119 141.661 39.1966 141.618 39.2711C141.577 39.3444 141.516 39.4044 141.441 39.4438C141.367 39.4833 141.283 39.5005 141.199 39.4935H138.195C138.111 39.4947 138.029 39.4723 137.958 39.4289C137.887 39.3855 137.83 39.3229 137.793 39.2483L134.493 33.1054H131.186V39.003C131.187 39.0619 131.176 39.1205 131.155 39.1752C131.133 39.23 131.101 39.28 131.06 39.3222C131.019 39.3645 130.97 39.3982 130.915 39.4215C130.861 39.4448 130.803 39.4572 130.744 39.4579H127.85C127.791 39.4572 127.732 39.4448 127.678 39.4215C127.624 39.3982 127.575 39.3645 127.534 39.3222C127.493 39.28 127.461 39.23 127.439 39.1752C127.417 39.1205 127.407 39.0619 127.408 39.003L127.388 21.6923L127.386 21.6909ZM151.295 24.8208V36.0371H154.089C154.803 36.0274 155.507 35.8748 156.161 35.5883C156.814 35.3017 157.403 34.887 157.894 34.3688C158.9 33.3058 159.451 31.8922 159.43 30.4289C159.452 29.701 159.331 28.9757 159.072 28.2949C158.814 27.6141 158.423 26.9911 157.922 26.462C157.43 25.9413 156.836 25.5271 156.177 25.2451C155.518 24.963 154.808 24.8191 154.091 24.8222L151.295 24.8208V24.8208ZM154.089 21.3002C159.301 21.3002 163.244 25.3427 163.244 30.4289C163.244 35.5152 159.301 39.5577 154.089 39.5577H147.941C147.882 39.557 147.824 39.5446 147.77 39.5213C147.715 39.498 147.666 39.4643 147.625 39.422C147.584 39.3798 147.552 39.3298 147.53 39.2751C147.509 39.2203 147.498 39.1618 147.499 39.1028V21.7778C147.499 21.5255 147.697 21.3215 147.941 21.3215L154.091 21.3002H154.089ZM174.874 25.7605L172.711 31.7579H177.033L174.874 25.7605V25.7605ZM171.442 35.1473L170.026 39.1399C169.997 39.2339 169.938 39.3157 169.858 39.3725C169.778 39.4293 169.682 39.4578 169.584 39.4536H166.512C166.434 39.4609 166.355 39.447 166.284 39.4134C166.213 39.3798 166.153 39.3277 166.109 39.2625C166.064 39.1967 166.037 39.1203 166.03 39.0409C166.023 38.9614 166.037 38.8816 166.07 38.8091L172.706 21.4998C172.737 21.4085 172.797 21.3298 172.877 21.2758C172.957 21.2217 173.052 21.1952 173.148 21.2003H176.585C176.681 21.1949 176.777 21.2213 176.857 21.2753C176.937 21.3294 176.997 21.4083 177.028 21.4998L183.665 38.8091C183.698 38.8817 183.711 38.9616 183.704 39.0411C183.697 39.1205 183.67 39.1968 183.625 39.2625C183.581 39.3274 183.52 39.3792 183.449 39.4126C183.378 39.446 183.299 39.4596 183.221 39.4522H180.151C180.053 39.4564 179.956 39.4278 179.876 39.371C179.796 39.3143 179.737 39.2324 179.709 39.1385L178.293 35.1459H171.442V35.1473ZM187.225 26.1497C187.225 23.2836 189.641 20.8054 193.455 20.8054C195.509 20.7595 197.498 21.5279 198.988 22.9428C199.033 22.9857 199.069 23.0375 199.094 23.0948C199.119 23.1522 199.131 23.214 199.131 23.2765C199.131 23.339 199.119 23.4008 199.094 23.4581C199.069 23.5155 199.033 23.5672 198.988 23.6102L197.286 25.3427C197.246 25.3847 197.197 25.4182 197.143 25.4411C197.089 25.4639 197.031 25.4757 196.973 25.4757C196.914 25.4757 196.856 25.4639 196.802 25.4411C196.748 25.4182 196.7 25.3847 196.659 25.3427C195.858 24.5917 194.805 24.1661 193.707 24.1492C192.182 24.1492 191.054 25.0575 191.054 26.1055C191.054 29.4935 200.07 27.5386 200.07 34.0579C200.066 37.3618 197.632 39.8614 193.328 39.8614C192.133 39.8737 190.948 39.6454 189.843 39.1903C188.738 38.7352 187.736 38.0624 186.896 37.2121C186.85 37.1692 186.814 37.1174 186.789 37.0601C186.765 37.0027 186.752 36.9409 186.752 36.8784C186.752 36.8159 186.765 36.7541 186.789 36.6967C186.814 36.6394 186.85 36.5876 186.896 36.5447L188.541 34.8564C188.582 34.8123 188.632 34.7771 188.687 34.753C188.742 34.7289 188.802 34.7165 188.862 34.7165C188.922 34.7165 188.982 34.7289 189.037 34.753C189.092 34.7771 189.142 34.8123 189.183 34.8564C190.219 35.883 191.613 36.466 193.071 36.482C194.978 36.482 196.234 35.4382 196.234 34.1306C196.234 30.7412 187.222 32.6976 187.222 26.1768L187.225 26.1497ZM216.42 21.668V28.5182H208.788V21.668C208.789 21.6092 208.778 21.5509 208.756 21.4963C208.734 21.4417 208.702 21.3919 208.661 21.3498C208.62 21.3077 208.571 21.274 208.517 21.2509C208.463 21.2277 208.405 21.2153 208.346 21.2146H205.451C205.393 21.2153 205.334 21.2277 205.28 21.2509C205.226 21.274 205.177 21.3077 205.136 21.3498C205.095 21.3919 205.063 21.4417 205.041 21.4963C205.019 21.5509 205.009 21.6092 205.009 21.668V38.9745C205.009 39.2255 205.209 39.4294 205.451 39.4294H208.346C208.588 39.4294 208.788 39.2255 208.788 38.9745V32.016H216.414V38.9745C216.414 39.2255 216.613 39.4294 216.856 39.4294H219.751C219.994 39.4294 220.193 39.2255 220.193 38.9745V21.668C220.193 21.6092 220.182 21.5509 220.161 21.4963C220.139 21.4417 220.107 21.3919 220.065 21.3498C220.024 21.3077 219.975 21.274 219.921 21.2509C219.867 21.2277 219.809 21.2153 219.751 21.2146H216.856C216.738 21.2176 216.626 21.2669 216.545 21.3517C216.463 21.4366 216.418 21.5503 216.42 21.668V21.668ZM44.2404 23.5246C42.2327 19.8029 38.3043 17.4858 34.0322 17.5001H1.70932C1.49103 17.501 1.27783 17.5661 1.09628 17.6873C0.914736 17.8085 0.772866 17.9804 0.688352 18.1817C0.605073 18.3816 0.583383 18.6019 0.626061 18.8143C0.668739 19.0267 0.773842 19.2215 0.927908 19.3737L7.96913 26.3608C8.59083 26.9796 9.43783 27.3261 10.3191 27.3261H33.1054C34.7295 27.309 36.057 28.5952 36.0741 30.1965C36.0912 31.7978 34.7894 33.1097 33.1652 33.1254H17.4558C17.2374 33.1255 17.0238 33.1899 16.8417 33.3106C16.6596 33.4313 16.5171 33.6029 16.432 33.8041C16.3479 34.0043 16.3257 34.2251 16.3681 34.438C16.4105 34.651 16.5157 34.8464 16.6701 34.999L23.7156 41.9918C24.3412 42.6103 25.1858 42.9567 26.0656 42.9557H33.1709C42.4152 42.9557 49.4051 33.2024 44.2404 23.5203" fill="#959595"/>
</g>
<defs>
<clipPath id="clip0_21_2063">
<rect width="219.333" height="56" fill="white" transform="translate(0.600098)"/>
</clipPath>
</defs>
</svg>
