<svg width="164" height="34" viewBox="0 0 164 34" fill="none" xmlns="http://www.w3.org/2000/svg">
<path fill-rule="evenodd" clip-rule="evenodd" d="M19.6751 2.72671C19.4494 2.64465 19.2018 2.64653 18.9774 2.73202L4.97736 8.06535C4.5896 8.21307 4.33335 8.5849 4.33335 8.99984V24.9998C4.33335 25.4148 4.5896 25.7866 4.97736 25.9343L18.9774 31.2677C19.2018 31.3531 19.4494 31.355 19.6751 31.273L27.0084 28.6063C27.4036 28.4626 27.6667 28.087 27.6667 27.6665V6.33317C27.6667 5.91266 27.4036 5.53708 27.0084 5.39338L19.6751 2.72671ZM5.33335 24.9998L18.6667 25.6665V8.99984L11.3334 10.9998V21.6665L5.33335 24.9998Z" fill="#FDD702"/>
<path d="M163.474 7.85909L157.796 17.3112L163.82 27.3172H158.765L155.268 21.0504L151.806 27.3172H146.786L152.81 17.3112L147.132 7.85909H152.221L155.303 13.5026L158.35 7.85909H163.474Z" fill="#FDD702"/>
<path d="M144.495 7.85893V27.317H139.994V7.85893H144.495ZM145.014 2.76935C145.014 4.29276 143.802 5.50456 142.279 5.50456C140.755 5.50456 139.543 4.29276 139.543 2.76935C139.543 1.24594 140.755 -0.000488281 142.279 -0.000488281C143.802 -0.000488281 145.014 1.24594 145.014 2.76935Z" fill="#FDD702"/>
<path d="M137.032 7.6513V12.1177C133.57 11.8407 132.185 13.5026 132.185 16.6187V27.3171H127.684V7.85904H131.908V10.4904C132.462 8.34376 134.816 7.37432 137.032 7.6513Z" fill="#FDD702"/>
<path d="M117.293 27.6634C112.619 27.6634 109.988 24.7205 109.988 19.9425V15.2684C109.988 10.6635 112.619 7.65132 117.293 7.65132C121.829 7.65132 124.564 10.6635 124.564 15.2684V19.9425C124.564 24.7205 121.829 27.6634 117.293 27.6634ZM117.293 11.7368C115.701 11.7368 114.489 12.637 114.489 14.7144V20.6003C114.489 22.6777 115.701 23.6125 117.293 23.6125C118.782 23.6125 120.063 22.6777 120.063 20.6003V14.7144C120.063 12.637 118.817 11.7368 117.293 11.7368Z" fill="white"/>
<path d="M101.519 7.54819C105.016 7.54819 107.301 9.72944 107.301 14.7151V20.3933C107.301 25.3444 105.016 27.5256 101.519 27.5256C98.5067 27.5256 97.2602 25.5521 97.2602 25.5521V34.0001H92.69V7.85979H96.914V9.9718C97.191 9.31396 98.7144 7.54819 101.519 7.54819ZM99.9608 11.5645C98.3335 11.5645 97.191 12.6724 97.191 15.0614V20.1163C97.191 22.4361 98.3682 23.4748 99.9608 23.4748C101.657 23.4748 102.765 22.3668 102.765 20.0125V15.0614C102.765 12.6724 101.623 11.5645 99.9608 11.5645Z" fill="white"/>
<path d="M71.1218 14.2297V27.3172H66.6208V7.85906H70.8448V9.86719C71.0871 9.34785 72.2297 7.65132 74.861 7.65132C76.8345 7.65132 78.4965 8.48227 79.4313 10.3173C80.0199 9.17473 81.5779 7.65132 84.2092 7.65132C87.4638 7.65132 89.3681 9.76332 89.3681 14.472V27.3172H84.8325V14.2989C84.8325 12.36 83.7938 11.633 82.5473 11.633C81.3702 11.633 80.2622 12.3947 80.2622 14.2297V27.3172H75.7266V14.2989C75.7266 12.3947 74.7572 11.633 73.4069 11.633C72.2297 11.633 71.1218 12.36 71.1218 14.2297Z" fill="white"/>
<path d="M59.1697 21.0849H63.6706V21.2234C63.6706 24.7896 60.97 27.6633 56.3998 27.6633C51.7603 27.6633 49.0944 24.7204 49.0944 20.0463V15.3029C49.0944 10.5596 51.7603 7.61661 56.3998 7.61661C60.97 7.61661 63.6706 10.3518 63.6706 15.1298V18.9383H53.5954V21.0503C53.5954 22.7815 54.9803 23.9586 56.3998 23.9586C57.9232 23.9586 59.1697 23.0931 59.1697 21.5004V21.0849ZM53.5954 14.3335V15.753H59.1697V14.8182C59.1697 12.2215 58.0963 11.3559 56.3998 11.3559C54.8072 11.3559 53.5954 12.2561 53.5954 14.3335Z" fill="white"/>
<path d="M37.1135 11.8757C37.1135 10.6293 37.0789 9.45212 37.0789 8.20569C39.6064 8.20569 40.472 7.13238 40.472 3.91245H43.4842V7.89409H47.0503V11.8757H43.4842V20.2199C43.4842 22.4357 43.8304 23.509 46.0117 23.509C46.3233 23.509 46.7041 23.509 47.1196 23.4398V27.4907C46.531 27.5599 46.0117 27.5946 45.4923 27.5946C40.2642 27.5946 38.9832 24.8593 38.9832 20.116V11.8757H37.1135Z" fill="white"/>
</svg>
