<svg width="30" height="24" viewBox="0 0 30 24" fill="none" xmlns="http://www.w3.org/2000/svg">
<g clip-path="url(#clip0_1_966)">
<path d="M4.5 6C4.5 4.4087 5.13214 2.88258 6.25736 1.75736C7.38258 0.632141 8.9087 0 10.5 0C12.0913 0 13.6174 0.632141 14.7426 1.75736C15.8679 2.88258 16.5 4.4087 16.5 6C16.5 7.5913 15.8679 9.11742 14.7426 10.2426C13.6174 11.3679 12.0913 12 10.5 12C8.9087 12 7.38258 11.3679 6.25736 10.2426C5.13214 9.11742 4.5 7.5913 4.5 6ZM0 22.6078C0 17.9906 3.74063 14.25 8.35781 14.25H12.6422C17.2594 14.25 21 17.9906 21 22.6078C21 23.3766 20.3766 24 19.6078 24H1.39219C0.623438 24 0 23.3766 0 22.6078ZM23.625 14.625V11.625H20.625C20.0016 11.625 19.5 11.1234 19.5 10.5C19.5 9.87656 20.0016 9.375 20.625 9.375H23.625V6.375C23.625 5.75156 24.1266 5.25 24.75 5.25C25.3734 5.25 25.875 5.75156 25.875 6.375V9.375H28.875C29.4984 9.375 30 9.87656 30 10.5C30 11.1234 29.4984 11.625 28.875 11.625H25.875V14.625C25.875 15.2484 25.3734 15.75 24.75 15.75C24.1266 15.75 23.625 15.2484 23.625 14.625Z" fill="#060121"/>
</g>
<defs>
<clipPath id="clip0_1_966">
<rect width="30" height="24" fill="white"/>
</clipPath>
</defs>
</svg>
